<?xml version="1.0" encoding="UTF-8"?>
<svg width="120px" height="120px" viewBox="0 0 120 120" version="1.1" xmlns="http://www.w3.org/2000/svg" xmlns:xlink="http://www.w3.org/1999/xlink">
    <title>Empty page/ empty shopping cart</title>
    <g stroke="none" stroke-width="1" fill="none" fill-rule="evenodd">
        <g transform="translate(5.000000, 6.000000)" fill="#A1A7B3" fill-rule="nonzero">
            <path d="M59.9358853,105 C68.6269828,105.012963 76.6736643,105.143174 83.3523837,105.357357 C84.5889411,106.380357 86.2097591,106.999465 87.9839537,106.999465 C89.5313109,106.999465 90.9620039,106.528547 92.1235864,105.730435 C98.2951098,106.075474 102,106.517572 102,106.999465 C102,108.10433 82.5243866,109 58.5,109 C34.4756134,109 15,108.10433 15,106.999465 C15,106.356848 21.5883593,105.784999 31.8281243,105.418987 C33.0568813,106.404861 34.6483049,106.999465 36.3870347,106.999465 C38.2718013,106.999465 39.9834781,106.300784 41.2465674,105.163154 C46.1204419,105.065503 51.4582254,105.008361 57.0641147,105 L59.9358853,105 Z" fill-opacity="0.2"></path>
            <path d="M62.2972973,18.5599999 C60.7820478,21.0189985 59.4702015,22.8553638 58.3617583,24.0690955 C56.6990936,25.8896931 52.0202247,26.427182 54.2904186,26.427182 C55.2808388,26.427182 56.7418208,26.1937506 58.3617583,25.1541937 C58.932086,24.7881993 59.8234268,23.6988475 61.0357806,21.8861384 C61.8767918,24.321229 60.8490292,26.3079356 57.952493,27.8462581 C55.0559569,29.3845806 52.0717925,29.3845806 49,27.8462581 C51.1260547,26.3888999 52.5308173,24.7021428 53.2142877,22.7859867 C54.2394934,19.9117526 56.916196,19.4655686 57.952493,19.4655686 C58.6433579,19.4655686 59.2065391,19.736183 59.642037,20.2774121 L59.642037,20.2774121 L61.0357806,18.5599999 L62.2972973,18.5599999 Z M87.5290456,15.3130935 C87.8574428,15.6347956 87.8699775,16.1692636 87.5570427,16.5068614 C81.1787377,23.3878482 73.4091213,27.1713018 64.2850157,27.8378403 C63.8325346,27.8708951 63.4396603,27.5206065 63.4075063,27.0554487 C63.3753522,26.5902909 63.7160946,26.1864097 64.1685757,26.1533549 C72.883373,25.5167174 80.2708441,21.9193513 86.3678112,15.341875 C86.6807459,15.0042773 87.2006483,14.9913914 87.5290456,15.3130935 Z M89.641334,0.139994485 C90.009561,0.397076225 90.110819,0.920873562 89.8675001,1.30992858 C86.1766503,7.21141737 81.7630384,11.0268113 76.6323819,12.721319 C76.2111272,12.8604473 75.7628849,12.6124226 75.6312049,12.1673403 C75.4995248,11.7222582 75.7342714,11.2486621 76.1555262,11.1095338 C80.9107161,9.53903185 85.0349789,5.97376886 88.5340323,0.378953238 C88.7773511,-0.0101017759 89.2731071,-0.117087256 89.641334,0.139994485 Z" fill-opacity="0.8"></path>
            <g transform="translate(0.000000, 17.000000)">
                <path d="M8.87683263,2.36746023 C13.3448147,2.36746023 17.2427685,5.54695933 18.1439337,9.92676075 L19.1004028,14.5821459 L14.1931153,14.2046205 L13.5103832,10.8832147 C13.0586179,8.69094651 11.1120063,7.1023807 8.87683263,7.1023807 L8.82792879,7.10172802 C9.23055481,6.40529953 9.46105263,5.59688907 9.46105263,4.73492047 C9.46105263,3.87246215 9.23029282,3.06362283 8.82724237,2.366926 L8.87683263,2.36746023 Z" opacity="0.200000003"></path>
                <path d="M92.8025223,78.1248518 C93.9268272,79.3815564 94.6105263,81.0414149 94.6105263,82.8611081 C94.6105263,86.7836447 91.4336332,89.9634888 87.5147368,89.9634888 C83.5958405,89.9634888 80.4189474,86.7836447 80.4189474,82.8611081 C80.4189474,81.0414149 81.1026465,79.3815564 82.2269514,78.1248518 L92.8025223,78.1248518 Z M30.2065993,78.1108515 C30.3859309,78.1210295 30.5665842,78.1261876 30.7484211,78.1261876 L30.7484211,78.1261876 L40.7667329,78.1248518 C41.8910378,79.3815564 42.5747368,81.0414149 42.5747368,82.8611081 C42.5747368,86.7836447 39.3978436,89.9634888 35.4789474,89.9634888 C31.5600511,89.9634888 28.3831579,86.7836447 28.3831579,82.8611081 C28.3831579,81.0959667 29.0264788,79.4812205 30.0912411,78.2389549 L30.2065993,78.1108515 Z" opacity="0.600000024"></path>
                <ellipse opacity="0.5" cx="87.5147368" cy="82.8611081" rx="2.36526315" ry="2.36746023"></ellipse>
                <ellipse opacity="0.5" cx="35.4789474" cy="82.8611081" rx="2.36526315" ry="2.36746023"></ellipse>
                <path d="M30.7484211,63.9214263 C28.1395358,63.9214263 26.0178948,66.0450381 26.0178948,68.6563467 C26.0178948,71.2676553 28.1395358,73.3912672 30.7484211,73.3912672 L96.9757895,73.3912672 C98.2814148,73.3912672 99.3410526,74.4518894 99.3410526,75.7587275 C99.3410526,77.0655655 98.2814148,78.1261876 96.9757895,78.1261876 L30.7484211,78.1261876 C25.5306505,78.1261876 21.2873685,73.8789641 21.2873685,68.6563467 C21.2873685,66.1389653 22.2732473,63.8482056 23.8789301,62.1504825 C24.7534667,63.2409139 26.0930141,63.9214263 27.5671421,63.9214263 L30.7484211,63.9214263 Z" opacity="0.200000003"></path>
                <path d="M9.46105263,4.73492047 C9.46105263,7.34859657 7.34177685,9.46984093 4.73052632,9.46984093 C2.11927579,9.46984093 0,7.34859657 0,4.73492047 C0,2.12124436 2.11927579,0 4.73052632,0 C7.34177685,0 9.46105263,2.12124436 9.46105263,4.73492047 Z" opacity="0.600000024"></path>
                <path d="M22.9194,60.071936 C23.3451474,62.3068185 25.2964895,63.9214263 27.5671421,63.9214263 L95.3342968,63.9214263 C97.6475242,63.9214263 99.6201537,62.2476318 100.000961,59.9654002 L104.880499,30.65861 L16.0199274,23.81665 L22.9194,60.071936 Z" opacity="0.400000006"></path>
                <path d="M103.86107,21.1082754 L14.1915789,14.2047614 L16.0199274,23.81665 L104.878134,30.65861 L106.011095,23.8592643 C106.240525,22.4885048 105.24475,21.2148112 103.86107,21.1082754 Z" opacity="0.600000024"></path>
            </g>
        </g>
    </g>
</svg>