<svg xmlns="http://www.w3.org/2000/svg" width="20" height="24" viewBox="0 0 1024 1024"><path d="M589.095 202.89l5.872 5.489 387.674 387.674c12.497 12.497 12.497 32.758 0 45.255-11.361 11.361-29.138 12.394-41.666 3.098l-3.589-3.098-387.674-387.674c-1.8-1.8-3.697-3.444-5.673-4.933l-0.039 732.633c0 17.673-14.327 32-32 32-16.2 0-29.589-12.039-31.708-27.658l-0.292-4.342-0.039-732.633c-0.452 0.34-0.899 0.689-1.343 1.045l-4.33 3.888-387.812 387.812c-12.497 12.497-32.758 12.497-45.255 0-11.361-11.361-12.393-29.138-3.098-41.666l3.098-3.589 387.812-387.812c43.912-43.912 113.971-45.742 160.063-5.489zM960 10.667c17.673 0 32 14.327 32 32 0 16.2-12.039 29.589-27.658 31.708l-4.342 0.292h-896c-17.673 0-32-14.327-32-32 0-16.2 12.039-29.589 27.658-31.708l4.342-0.292h896z" fill="#000000" fill-opacity="0.4"></path></svg>