<svg xmlns="http://www.w3.org/2000/svg" width="16" height="16" viewBox="0 0 1024 1024"><path d="M853.333 836.267c28.277 0 51.2 22.923 51.2 51.2s-22.923 51.2-51.2 51.2c-28.277 0-51.2-22.923-51.2-51.2s22.923-51.2 51.2-51.2zM320 836.267c28.277 0 51.2 22.923 51.2 51.2s-22.923 51.2-51.2 51.2c-28.277 0-51.2-22.923-51.2-51.2s22.923-51.2 51.2-51.2zM116.373 138.667c57.119 0 106.998 37.731 122.943 91.941l1.962 7.492 97.583 424.197c6.256 27.193 29.265 46.991 56.612 49.51l5.922 0.272h386.611c26.072 0 48.788-17.113 56.262-41.644l1.364-5.366 61.687-300.889c0.435-2.122 0.654-4.283 0.654-6.449 0-16.257-12.080-29.692-27.754-31.818l-4.357-0.293h-534.492c-17.673 0-32-14.327-32-32 0-16.2 12.039-29.589 27.658-31.708l4.342-0.292h534.492c53.081 0 96.111 43.030 96.111 96.111 0 4.323-0.292 8.638-0.872 12.916l-1.086 6.387-61.687 300.889c-11.205 54.653-57.697 94.559-112.762 97.926l-7.56 0.231h-386.611c-57.119 0-106.998-37.731-122.943-91.941l-1.962-7.492-97.583-424.197c-6.256-27.193-29.265-46.991-56.612-49.51l-5.922-0.272h-31.040c-17.673 0-32-14.327-32-32 0-16.2 12.039-29.589 27.658-31.708l4.342-0.292h31.040z" fill="#FFFFFF" fill-opacity="0.6"></path></svg>