<svg xmlns="http://www.w3.org/2000/svg" width="24" height="24" viewBox="0 0 1024 1024"><path d="M512 42.667c259.206 0 469.333 210.128 469.333 469.333s-210.128 469.333-469.333 469.333c-259.206 0-469.333-210.128-469.333-469.333s210.128-469.333 469.333-469.333zM376.235 330.981c-12.497-12.497-32.758-12.497-45.255 0s-12.497 32.758 0 45.255v0l135.795 135.734-135.795 135.795c-12.497 12.497-12.497 32.758 0 45.255s32.758 12.497 45.255 0v0l316.784-316.784c12.497-12.497 12.497-32.758 0-45.255s-32.758-12.497-45.255 0v0l-135.734 135.734zM587.425 542.17l-45.255 45.255 105.595 105.595c12.497 12.497 32.758 12.497 45.255 0s12.497-32.758 0-45.255v0l-105.595-105.595z" fill="#000000" fill-opacity="0.2"></path></svg>