<svg xmlns="http://www.w3.org/2000/svg" width="100%" height="100%" viewBox=" 100 -1000 3000 3000"><path d="M2301.696 590.3l6.778 6.498c4.466 4.389 8.819 8.888 13.061 13.499v0l-11.045 10.189h18.346v16.224h-41.742l0.599 9.344c1.159 15.531 3.147 30.842 5.953 45.935 6.865-13.71 12.23-27.923 16.099-42.638v0l13.851 3.586-2.621 8.869c-2.715 8.869-5.709 17.733-8.986 26.602-3.493 8.806-7.674 17.167-12.54 25.092 1.497 5.787 3.493 11.383 5.991 16.79 0.875 3.020 2.307 5.725 4.304 8.114 0.999 1.51 2.245 2.265 3.745 2.265 0.373 0 0.813-0.252 1.308-0.755s0.999-1.258 1.497-2.265c1.497-3.397 2.495-7.045 2.996-10.943 0.999-6.417 1.749-12.829 2.245-19.242v0l13.851 3.774-1.081 7.819c-0.775 5.227-1.662 10.48-2.66 15.763-0.999 3.397-1.935 6.857-2.809 10.377-0.999 2.894-2.495 5.599-4.491 8.114-2.872 3.9-6.487 5.85-10.857 5.85-4.491-0.503-8.174-2.265-11.045-5.284-4.366-3.9-7.548-8.806-9.544-14.715-1.497-2.894-2.934-6.102-4.304-9.623-7.863 10.818-16.658 20.94-26.394 30.376v0l-11.603-11.132 4.648-4.122c10.66-9.78 20.028-20.671 28.109-32.665-6.239-25.029-10.357-50.121-12.354-75.276v0h-37.248v23.582h32.945l-2.245 59.054-0.093 2.548c-0.186 2.548-0.656 5.095-1.403 7.643-0.999 2.516-2.432 4.781-4.304 6.794-1.497 0.881-3.243 1.824-5.24 2.831-3.367 0.503-6.99 0.755-10.857 0.755v0h-8.798l-3.745-16.224h8.050l2.059-0.083c1.414-0.114 2.912-0.334 4.491-0.672 0.999-0.503 1.749-0.944 2.245-1.321 1.497-1.007 2.245-2.265 2.245-3.774 0.499-2.013 0.999-3.963 1.497-5.85 0.499-11.823 0.751-23.645 0.751-35.47v0h-17.595l-0.093 6.943c-0.186 6.912-0.656 13.714-1.403 20.413-0.999 6.794-2.432 13.898-4.304 21.317-1.997 4.907-4.242 9.812-6.739 14.715-3.367 7.423-7.238 14.527-11.603 21.317v0l-15.35-7.36 4.286-6.812c2.802-4.554 5.489-9.14 8.068-13.75 2.495-4.907 4.491-9.812 5.991-14.715 1.873-7.423 3.058-14.778 3.556-22.072 0.999-9.434 1.497-19.053 1.497-28.866v0-47.164h51.848l-1.497-29.432h16.099l0.093 7.36c0.186 7.36 0.656 14.715 1.403 22.072v0h24.146l-5.947-6.812c-4.020-4.554-8.153-9.14-12.397-13.75v0l10.295-9.623zM1044.534 685.384v19.242h73.75v17.545h-73.75v39.054h-18.346v-39.054h-73.75v-17.545h73.75v-19.242h18.346zM1445.743 592.564l-0.457 9.916c-0.538 9.929-1.324 19.894-2.353 29.891v0h69.444l-1.215 24.657c-1.308 24.596-2.903 49.019-4.774 73.263 0 4.529-0.688 8.743-2.059 12.641-1.497 2.39-3.243 4.341-5.24 5.85-2.872 2.516-6.239 4.215-10.109 5.095-5.364 1.007-10.481 1.51-15.35 1.51v0h-29.388l-3.556-17.733h26.953l3.473-0.063c2.301-0.083 4.577-0.252 6.822-0.503 2.495 0 4.68-0.755 6.55-2.265 1.497-1.51 2.495-3.020 2.996-4.529 0.999-2.39 1.749-5.095 2.245-8.114 1.371-24.022 2.558-48.045 3.556-72.068v0h-52.598l-1.28 7.026c-1.819 9.379-4.075 18.794-6.77 28.256-3.367 7.926-7.052 15.281-11.045 22.072-5.867 9.812-12.916 18.928-21.152 27.357-9.733 8.806-19.965 17.419-30.7 25.847v0l-13.104-14.15 5.812-4.174c7.705-5.694 15.255-11.913 22.642-18.654 7.361-7.297 13.725-15.156 19.093-23.582 3.87-6.417 7.238-13.018 10.109-19.808 3.493-9.812 6.177-19.871 8.050-30.187v0h-59.898v-17.733h62.143l1.497-19.949 1.497-19.855h18.158zM1847.702 588.791l3.058 6.833c2.079 4.499 4.242 8.888 6.487 13.166v0h68.697v15.47h-48.854l9.359 5.095-3.784 5.324c-2.468 3.493-4.825 6.875-7.070 10.146v0h39.494v90.748l-0.093 2.925c-0.186 2.925-0.656 5.85-1.403 8.774-0.499 2.013-1.497 3.774-2.996 5.284-2.369 1.887-5.055 3.334-8.050 4.341-3.87 1.007-7.737 1.51-11.603 1.51v0h-21.899l-2.996-14.715h25.645l1.112-0.472c1.099-0.566 2.165-1.415 3.195-2.548 0.999-1.007 1.749-2.202 2.245-3.586 0.499-2.013 0.751-4.278 0.751-6.794v0-38.299l-10.295 11.132-3.367-3.082c-2.245-2.094-4.491-4.278-6.739-6.542v0 46.41h-70.193v-44.901l-11.045 8.114-9.544-11.132v67.165h-16.099v-114.332h40.995l-4.286-5.41c-2.802-3.604-5.489-7.21-8.068-10.818v0l7.3-4.341h-46.795v-15.47h76.744l-2.89-5.41c-1.859-3.604-3.579-7.21-5.159-10.818v0l18.158-3.774zM2196.5 593.318v44.146h15.35v16.224h-15.35v53.769l13.104-4.341 0.751 10.377 0.751 5.85-12.075 3.774c-12.075 3.869-24.146 8.020-36.219 12.452v0l-2.996-16.979 5.148-1.214c5.148-1.297 10.295-2.841 15.443-4.633v0-59.054h-17.595v-16.224h17.595v-44.146h16.099zM1863.050 703.874h-39.307v21.317h39.307v-21.317zM1450.235 665.577l10.15 10.398c6.71 6.989 13.309 14.087 19.8 21.299v0l-13.291 12.452c-9.733-11.32-19.468-22.387-29.199-33.207v0l12.54-10.943zM1898.989 659.538h-111.188v32.452c13.229-9.812 25.395-20.374 36.5-31.697v0l11.045 9.623-5.136 5.095c-5.124 5.001-10.212 9.717-15.266 14.15v0h58.402l-21.152-18.488 10.857-10.377 12.146 10.315c8.043 6.875 15.973 13.75 23.792 20.625v0-31.697zM999.236 589.546l15.35 6.605-4.072 6.967c-4.118 6.865-8.375 13.407-12.774 19.635v0 67.165h-17.595v-46.598l-7.759 7.336c-5.185 4.837-10.401 9.56-15.642 14.172v0l-8.050-15.47 4.926-4.248c17.828-15.824 33.030-34.344 45.614-55.557v0zM1054.080 591.809v36.036l7.032-3.218c14.012-6.621 27.704-14.354 41.074-23.195v0l8.798 14.715-6.786 4.35c-15.941 9.961-32.649 18.573-50.119 25.836v0 11.886l0.062 1.906c0.083 1.285 0.248 2.597 0.499 3.941 0 1.007 0.499 1.95 1.497 2.831 0.999 1.007 2.245 1.761 3.745 2.265 1.873 0.503 3.556 0.503 5.055 0v0h21.152l1.544 0.283c1.591 0.189 3.321 0.094 5.194-0.283 0.875-0.503 1.811-1.007 2.809-1.51 1.497-0.881 2.495-2.076 2.996-3.586 0.499-2.013 0.751-3.963 0.751-5.85 0.499-5.41 0.751-10.818 0.751-16.224v0l15.35 3.586-0.751 18.488-0.090 2.308c-0.24 3.037-0.958 5.915-2.157 8.633-0.999 2.013-2.183 3.774-3.556 5.284-1.997 1.887-4.491 3.334-7.485 4.341-4.366 0.503-8.484 0.755-12.354 0.755v0h-31.447l-2.539-0.094c-2.55-0.189-5.136-0.661-7.756-1.415-2.369-0.503-4.554-1.698-6.55-3.586-1.873-2.516-3.058-5.221-3.556-8.114-0.499-3.020-0.751-5.976-0.751-8.869v0-10.377l-7.674 2.841c-7.674 2.76-15.35 5.269-23.022 7.533v0l-5.804-15.47 7.271-2.134c9.702-2.978 19.446-6.48 29.231-10.503v0-43.392h17.595zM1869.79 624.257h-52.784l13.291 16.224-5.991 4.341h29.388c5.867-6.794 11.232-13.647 16.099-20.563v0zM1387.342 591.809l26.205 27.923-12.354 11.886c-8.735-9.812-17.78-19.368-27.14-28.678v0l13.291-11.132zM2226.226 259.631c5.639 0 10.291 4.232 10.975 9.706l0.086 1.393v157.13c0 23.249 13.456 43.016 29.773 44.398l1.826 0.076h170.404c5.639 0 10.291 4.232 10.975 9.706l0.086 1.393v29.593c0 5.658-4.217 10.327-9.671 11.013l-1.387 0.086h-170.404c-44.948 0-81.684-41.443-83.165-93.029l-0.046-3.237v-157.13c0-5.658 4.217-10.327 9.671-11.013l1.387-0.086h29.492zM1960.812 259.631c5.639 0 10.291 4.232 10.975 9.706l0.086 1.393v157.13c0 23.249 13.456 43.016 29.773 44.398l1.826 0.076h170.404c5.639 0 10.291 4.232 10.975 9.706l0.086 1.393v29.593c0 5.658-4.217 10.327-9.671 11.013l-1.387 0.086h-170.404c-44.948 0-81.684-41.443-83.165-93.029l-0.046-3.237v-157.13c0-5.658 4.217-10.327 9.671-11.013l1.387-0.086h29.492zM1747.716 259.63c27.076 0 51.887 15.621 66.363 41.789l96.15 167.298 21.906 38.842c4.174 7.399-1.153 16.565-9.625 16.565h-33.875c-3.965 0-7.627-2.126-9.599-5.584l-9.269-16.237 0.014-0.012-17.287-30.14-0.801 0.075-0.813 0.028-156.108 0.287c-2.26 0.004-4.484-0.578-6.456-1.694-5.825-3.297-8.142-10.401-5.599-16.421l0.672-1.368 15.629-27.604c1.324-2.338 3.637-3.91 6.244-4.311l1.324-0.101 116.58-0.001-54.22-94.489c-5.319-9.617-13.062-15.132-21.236-15.132-8.177 0-14.126 5.515-19.446 15.132l-110.101 191.987c-1.972 3.454-7.427 5.584-11.391 5.584h-33.881c-8.472 0-13.798-9.167-9.625-16.565l23.006-40.806 95.071-165.334c14.479-26.166 39.284-41.789 66.363-41.789zM871.51 259.631c3.47 0 6.705 1.63 8.782 4.35l0.815 1.23 9.269 16.237 100.831 175.75c5.319 9.617 13.062 15.132 21.238 15.132 7.545 0 14.723-4.7 19.965-12.987l1.269-2.147 110.081-191.987c1.725-3.022 4.743-5.030 8.13-5.483l1.471-0.098h33.875c8.002 0 13.199 8.177 10.236 15.319l-0.609 1.246-21.906 38.842-96.15 167.298c-14.479 26.166-39.29 41.789-66.363 41.789-26.038 0-49.975-14.443-64.649-38.817l-1.717-2.973-95.071-165.334-23.006-40.806c-3.941-6.989 0.593-15.553 8.244-16.484l1.38-0.083h33.881zM1252.546 262.837l1.696 1.277 9.874 9.796v0.494l92.257 92.265c12.113 12.111 36.746 7.941 53.797-9.107l93.525-93.45c7.721-6.322 18.382-7.611 27.384-3.334 8.404 4.003 13.961 12.201 14.668 21.408l0.075 1.985v227.504c0 5.658-4.217 10.327-9.671 11.013l-1.387 0.086h-29.492c-5.639 0-10.291-4.232-10.975-9.706l-0.086-1.393-0.004-165.178-47.541 47.557c-37.537 37.536-94.468 41.679-126.914 9.236l-56.026-56.044 0.005 164.431c0 5.658-4.224 10.327-9.672 11.013l-1.387 0.086h-29.492c-5.639 0-10.291-4.232-10.975-9.706l-0.086-1.393v-227.504c0-10 5.736-19.108 14.743-23.394 8.365-3.979 18.15-3.141 25.685 2.055z" fill="#000000" fill-opacity="0.05"></path></svg>