<svg xmlns="http://www.w3.org/2000/svg" width="24" height="24" viewBox="0 0 1024 1024"><path d="M128 469.333c0-212.077 171.923-384 384-384s384 171.923 384 384v0 85.333c0 212.077-171.923 384-384 384v0h-18.962c-17.673 0-32-14.327-32-32s14.327-32 32-32v0h18.962c131.299 0 244.128-79.077 293.462-192.203l-5.462 0.203c-53.019 0-96-42.981-96-96v-85.333c0-53.019 42.981-96 96-96 9.119 0 17.94 1.271 26.297 3.646-28.172-147.848-158.179-259.646-314.297-259.646s-286.125 111.798-314.327 259.702c8.387-2.431 17.209-3.702 26.327-3.702 53.019 0 96 42.981 96 96v85.333c0 53.019-42.981 96-96 96s-96-42.981-96-96zM800 469.333c-17.673 0-32 14.327-32 32v85.333c0 17.673 14.327 32 32 32 12.595 0 23.49-7.276 28.711-17.854 2.164-15.088 3.289-30.486 3.289-46.146v0-53.333c0-17.673-14.327-32-32-32zM224 469.333c-17.673 0-32 14.327-32 32v85.333c0 17.673 14.327 32 32 32s32-14.327 32-32v-85.333c0-17.673-14.327-32-32-32z" fill="#000000" fill-opacity="0.4"></path></svg>