<svg xmlns="http://www.w3.org/2000/svg" width="16" height="16" viewBox="0 0 1024 1024"><path d="M221.521 439.292l1.31 1.42 214.27 219.25c28.968 29.641 75.56 30.259 105.262 1.853l1.873-1.853 214.27-219.25c5.579-5.708 8.703-12.977 9.372-20.434l0.122-2.037v-2.040c-0.243-8.159-3.408-16.244-9.494-22.471-12.226-12.51-31.778-12.957-44.527-1.34l-1.388 1.34-198.965 203.589c-12.226 12.51-31.778 12.957-44.527 1.34l-1.388-1.34-198.965-203.589c-12.679-12.974-33.236-12.974-45.915 0-6.113 6.255-9.279 14.384-9.497 22.58l0.007 2.049c0.25 7.512 2.977 14.953 8.18 20.932z" fill="#FFFFFF" fill-opacity="0.6"></path></svg>