<svg xmlns="http://www.w3.org/2000/svg" width="24" height="24" viewBox="0 0 1024 1024"><path d="M502.154 182.857c130.231 0 238.614 94.364 262.378 219.194 61.243 8.74 108.119 63.727 108.119 129.787 0 67.19-48.494 122.925-111.323 130.161l-7.264 12.975c-31.501 53.541-70.371 85.745-116.482 94.951-8.67 30.972-37.12 53.709-70.88 53.709-40.637 0-73.581-32.943-73.581-73.581s32.943-73.581 73.581-73.581c31.879 0 59.023 20.273 69.242 48.63 32.357-9.101 60.972-36.035 85.929-82.371l3.58-7.033 0.038-182.065c0-121.691-94.263-220.899-212.521-226.629l-10.815-0.261c-119.648 0-217.43 95.629-223.078 215.892l-0.258 10.999v209.161l-8.263-0.28c-2.301-0.156-4.585-0.378-6.85-0.662-2.131 0.729-4.435 1.112-6.829 1.112-5.826 0-11.122-2.271-15.051-5.976-51.229-16.518-88.224-66.464-88.224-125.151 0-57.514 35.532-106.634 85.172-124.128 21.503-127.621 131.187-224.854 263.383-224.854zM566.701 720.359c-16.4 0-29.695 13.295-29.695 29.695s13.295 29.695 29.695 29.695c16.4 0 29.695-13.295 29.695-29.695s-13.295-29.695-29.695-29.695zM769.267 447.952l0.109 5.682-0.004 162.060c34.12-10.23 59.393-43.729 59.393-83.855 0-40.167-25.325-73.694-59.499-83.887zM234.897 458.562c-22.446 15.446-37.411 42.399-37.411 73.276 0 30.881 14.969 57.836 37.419 73.282l-0.007-146.558z" fill="#fff" fill-opacity="1"></path></svg>