<?xml version="1.0" encoding="UTF-8"?>
<svg width="279px" height="60px" viewBox="0 0 279 60" version="1.1" xmlns="http://www.w3.org/2000/svg" xmlns:xlink="http://www.w3.org/1999/xlink">
    <title>icon03</title>
    <g id="icon03" stroke="none" stroke-width="1" fill="none" fill-rule="evenodd">
        <g>
            <g id="WAP" transform="translate(7.000000, 0.000000)">
                <g id="编组">
                    <g id="Fill-1" transform="translate(248.000000, 0.000000)" fill="#A4A4A4" fill-rule="nonzero">
                        <path d="M5.7,8.2 C5.6,8.2 5.5,8.3 5.5,8.4 C5.4,8.5 5.4,8.5 5.3,8.6 C5.3,8.7 5.2,8.8 5.2,8.9 C5.2,9 5.2,9.1 5.3,9.2 C5.3,9.3 5.4,9.4 5.5,9.5 C5.6,9.6 5.7,9.6 5.7,9.7 C5.8,9.7 5.9,9.8 6,9.8 C6.1,9.8 6.2,9.8 6.3,9.7 C6.4,9.7 6.5,9.6 6.6,9.5 C6.7,9.4 6.7,9.3 6.8,9.2 C6.9,9.1 6.9,9.1 6.9,9 C6.9,8.9 6.9,8.8 6.8,8.7 C6.8,8.6 6.7,8.5 6.6,8.4 C6.5,8.3 6.5,8.3 6.4,8.2 C6.3,8.2 6.1,8.2 6,8.2 C5.9,8.2 5.8,8.2 5.7,8.2 M3.7,0.5 C2.9,0.8 2.3,1.2 1.8,1.8 C1.2,2.3 0.8,3 0.5,3.7 C0.2,4.4 0,5.2 0,6 C0,6.8 0.2,7.6 0.5,8.3 C0.8,9 1.2,9.7 1.8,10.2 C2.3,10.7 3,11.2 3.7,11.5 C4.4,11.8 5.2,12 6,12 C6.8,12 7.6,11.8 8.3,11.5 C9,11.2 9.7,10.8 10.2,10.2 C10.7,9.7 11.2,9 11.5,8.3 C11.8,7.6 12,6.8 12,6 C12,5.2 11.8,4.4 11.5,3.7 C11.2,3 10.8,2.3 10.2,1.8 C9.7,1.2 9,0.8 8.3,0.5 C7.6,0.2 6.8,0 6,0 C5.2,0 4.4,0.2 3.7,0.5 M5.3,3 L5.3,6.5 C5.3,7.1 5.6,7.3 6,7.3 C6.6,7.3 6.8,7 6.9,6.5 L6.9,3 C6.8,2.5 6.5,2.3 6,2.2 C5.5,2.3 5.3,2.5 5.3,3 M9.5,2.5 C10.5,3.4 11,4.6 11,6 C11,7.4 10.5,8.6 9.5,9.5 C8.6,10.5 7.4,11 6,11 C4.6,11 3.4,10.5 2.4,9.5 C1.5,8.6 1,7.4 1,6 C1,4.6 1.5,3.4 2.5,2.5 C3.4,1.5 4.6,1 6,1 C7.4,1 8.6,1.5 9.5,2.5" id="形状"></path>
                    </g>
                    <path d="M229.9,8.7 L224.4,13.7 C224.2,13.8 224,13.9 223.7,13.9 C223.4,13.9 223.2,13.8 223.1,13.7 L220.4,11.2 C220.2,11 220.1,10.8 220.1,10.5 C220.1,10.2 220.2,10 220.3,9.8 C220.5,9.6 220.7,9.5 221,9.5 C221.3,9.5 221.5,9.6 221.7,9.7 L223.8,11.6 L228.7,7.2 C228.9,7 229.1,6.9 229.4,7 C229.7,7 229.9,7.1 230.1,7.3 C230.3,7.5 230.3,7.8 230.3,8.1 C230.3,8.3 230.1,8.5 229.9,8.7 Z" id="Fill-3" fill="#FFFFFF" fill-rule="nonzero"></path>
                    <path d="M133.7,13.2 C133.9,13.1 133.9,12.9 133.9,12.7 C133.9,12.5 133.8,12.3 133.7,12.2 C133.6,12.1 133.3,12 133,12 C132.8,12 132.6,12.1 132.5,12.2 C132.4,12.3 132.3,12.5 132.3,12.7 C132.3,12.9 132.4,13.1 132.5,13.2 C132.6,13.3 132.8,13.4 133,13.4 C133.4,13.4 133.6,13.4 133.7,13.2 L133.7,13.2 Z M137.7,13.2 C137.9,13.1 137.9,12.9 137.9,12.7 C137.9,12.5 137.8,12.3 137.7,12.2 C137.5,12.1 137.3,12 137,12 C136.8,12 136.6,12.1 136.5,12.2 C136.4,12.3 136.3,12.5 136.3,12.7 C136.3,12.9 136.4,13.1 136.5,13.2 C136.6,13.3 136.8,13.4 137,13.4 C137.4,13.4 137.6,13.4 137.7,13.2 L137.7,13.2 Z M141.2,14.4 C141.2,15.2 140.9,16 140.5,16.7 C140,17.4 139.4,18 138.7,18.6 L139.2,20.4 L137.2,19.3 C136.8,19.4 136.5,19.5 136.1,19.5 C135.7,19.6 135.4,19.6 135,19.6 C133.2,19.6 131.8,19.1 130.6,18.1 C129.4,17.1 128.8,15.9 128.8,14.4 C128.8,12.9 129.4,11.7 130.6,10.7 C131.8,9.7 133.2,9.2 135,9.2 C136.7,9.2 138.1,9.8 139.3,10.7 C140.6,11.6 141.2,12.9 141.2,14.4 L141.2,14.4 Z M130.7,6.7 C130.4,6.7 130.2,6.8 130,6.9 C129.8,7.1 129.7,7.3 129.7,7.6 C129.7,7.9 129.8,8.1 130,8.3 C130.2,8.5 130.5,8.5 130.7,8.5 C131,8.5 131.2,8.4 131.4,8.3 C131.6,8.1 131.6,7.9 131.6,7.6 C131.6,7.3 131.5,7.1 131.4,6.9 C131.2,6.8 131,6.7 130.7,6.7 L130.7,6.7 Z M126.3,8.3 C126.5,8.1 126.5,7.9 126.5,7.6 C126.5,7.3 126.4,7.1 126.3,6.9 C126.1,6.7 125.9,6.7 125.6,6.7 C125.3,6.7 125.1,6.8 124.9,6.9 C124.7,7.1 124.6,7.3 124.6,7.6 C124.6,7.9 124.7,8.1 124.9,8.3 C125.1,8.5 125.4,8.5 125.7,8.5 C125.9,8.6 126.1,8.5 126.3,8.3 L126.3,8.3 Z M134.6,8.7 L134.6,8.7 C132.8,8.7 131.4,9.3 130.2,10.4 C129,11.5 128.5,12.8 128.4,14.5 C128.4,15 128.5,15.5 128.6,16 C128.4,16 128.1,16 127.9,16 C127.5,16 127,16 126.6,15.9 C126.2,15.8 125.8,15.7 125.3,15.7 L122.8,17 L123.5,14.8 C122.6,14.2 121.9,13.4 121.4,12.6 C120.9,11.8 120.6,10.9 120.6,9.9 C120.7,8.1 121.4,6.7 122.7,5.5 C124.1,4.3 125.8,3.7 127.8,3.7 C129.6,3.7 131.2,4.2 132.6,5.1 C134,6 134.8,7.2 135.2,8.7 L134.6,8.7 L134.6,8.7 Z" id="Fill-5" fill="#303030" fill-rule="nonzero"></path>
                    <polygon id="Fill-7" fill="#393939" fill-rule="nonzero" points="9.2 13 1.9 20.5 0.8 19.3 6.7 13 0.8 6.7 1.9 5.5"></polygon>
                    <polygon id="Fill-9" fill="#393939" fill-rule="nonzero" points="24.8 13 32.1 20.5 33.2 19.3 27.3 13 33.2 6.7 32.1 5.5"></polygon>
                    <path d="M47.1,2.5 C46.9,2.3 46.9,2.1 47,1.9 C47.1,1.7 47.2,1.5 47.4,1.5 C47.6,1.4 47.8,1.5 48,1.6 L53,6.6 C53,6.7 53.1,6.8 53.1,7 C53.1,7.2 53,7.3 52.9,7.4 L47.9,12.4 C47.7,12.6 47.5,12.6 47.3,12.5 C47.1,12.4 46.9,12.3 46.9,12.1 C46.8,11.9 46.9,11.7 47,11.5 L51.6,7 L47.1,2.5 Z" id="Fill-11" fill="#303030" fill-rule="nonzero"></path>
                    <path d="M61.6,3.4 C61.5,3.3 61.4,3.1 61.5,2.9 C61.5,2.7 61.7,2.6 61.8,2.6 C62,2.6 62.1,2.6 62.3,2.7 L66.3,6.7 C66.4,6.8 66.4,6.9 66.4,7.1 C66.4,7.2 66.4,7.4 66.3,7.5 L62.3,11.5 C62.2,11.6 62,11.7 61.8,11.6 C61.6,11.6 61.5,11.4 61.5,11.3 C61.5,11.1 61.5,11 61.6,10.8 L65.3,7 L61.6,3.4 Z" id="Fill-13" fill="#343434" fill-rule="nonzero"></path>
                    <path d="M72.7,7 L76.4,10.6 C76.5,10.7 76.6,10.9 76.5,11.1 C76.5,11.3 76.3,11.4 76.2,11.4 C76,11.4 75.9,11.4 75.7,11.3 L71.7,7.3 C71.6,7.2 71.6,7.1 71.6,6.9 C71.6,6.7 71.6,6.6 71.7,6.5 L75.7,2.5 C75.8,2.4 76,2.3 76.2,2.4 C76.4,2.4 76.5,2.6 76.5,2.7 C76.5,2.9 76.5,3 76.4,3.2 L72.7,7 Z" id="Fill-15" fill="#343434" fill-rule="nonzero"></path>
                    <path d="M81.6,3.4 C81.5,3.3 81.4,3.1 81.5,2.9 C81.5,2.7 81.7,2.6 81.8,2.6 C82,2.6 82.1,2.6 82.3,2.7 L86.3,6.7 C86.4,6.8 86.4,6.9 86.4,7.1 C86.4,7.2 86.4,7.4 86.3,7.5 L82.3,11.5 C82.2,11.6 82,11.7 81.8,11.6 C81.6,11.6 81.5,11.4 81.5,11.3 C81.5,11.1 81.5,11 81.6,10.8 L85.3,7 L81.6,3.4 Z" id="Fill-17" fill="#969696" fill-rule="nonzero"></path>
                    <path d="M92.7,7 L96.4,10.6 C96.5,10.7 96.6,10.9 96.5,11.1 C96.5,11.3 96.3,11.4 96.2,11.4 C96,11.4 95.9,11.4 95.7,11.3 L91.7,7.3 C91.6,7.2 91.6,7.1 91.6,6.9 C91.6,6.7 91.6,6.6 91.7,6.5 L95.7,2.5 C95.8,2.4 96,2.3 96.2,2.4 C96.4,2.4 96.5,2.6 96.5,2.7 C96.5,2.9 96.5,3 96.4,3.2 L92.7,7 Z" id="Fill-19" fill="#969696" fill-rule="nonzero"></path>
                    <path d="M110.3,16.5 C110.6,16.5 110.8,16.4 110.9,16.2 C111,16 111,15.7 110.9,15.5 C110.8,15.3 110.6,15.1 110.3,15.1 C110.1,15.1 110,15.2 109.8,15.3 C109.7,15.4 109.6,15.6 109.6,15.8 C109.6,16 109.7,16.2 109.8,16.3 C109.9,16.5 110.1,16.5 110.3,16.5 L110.3,16.5 Z M115.1,8.7 L115.1,8.8 L115.1,12.6 C115.5,12.5 115.8,12.2 116.1,11.9 C116.4,11.5 116.5,11.1 116.5,10.6 C116.5,10.1 116.4,9.7 116.1,9.3 C115.8,9.1 115.5,8.8 115.1,8.7 L115.1,8.7 Z M102.4,9 C102.1,9.2 101.9,9.5 101.7,9.8 C101.5,10.1 101.5,10.4 101.5,10.8 C101.5,11.2 101.6,11.5 101.7,11.8 C101.9,12.1 102.1,12.4 102.3,12.5 L102.3,9 L102.4,9 Z M111.9,16.3 C111.8,16.7 111.5,17 111.2,17.3 C110.9,17.6 110.5,17.6 110,17.6 C109.6,17.6 109.2,17.4 108.9,17.1 C108.6,16.8 108.5,16.4 108.5,16 C108.5,15.6 108.6,15.2 108.9,14.9 C109.2,14.6 109.5,14.4 109.9,14.3 C110.3,14.2 110.7,14.3 111.1,14.5 C111.5,14.7 111.7,15 111.9,15.4 C112.7,15.2 113.4,14.5 114,13.3 L114,8.8 C114,7.3 113.4,6 112.4,5 C111.4,4 110.2,3.5 108.7,3.4 C107.2,3.5 106,4 105,5 C104,6 103.5,7.3 103.4,8.8 L103.4,13.7 C103.3,13.7 103.2,13.7 103.1,13.7 C102.9,13.8 102.7,13.7 102.6,13.6 C102,13.4 101.5,13 101.1,12.5 C100.7,12 100.5,11.4 100.5,10.7 C100.5,10 100.7,9.4 101.1,8.9 C101.5,8.4 102,8 102.5,7.8 C102.8,6.3 103.5,5 104.6,4 C105.7,3 107.1,2.5 108.7,2.5 C110.3,2.5 111.6,3 112.7,4 C113.8,5 114.5,6.2 114.9,7.7 C115.6,7.8 116.3,8.2 116.7,8.7 C117.1,9.2 117.4,9.9 117.4,10.7 C117.4,11.5 117.1,12.2 116.6,12.8 C116.1,13.4 115.5,13.7 114.7,13.8 C114.1,15.2 113.1,16.1 111.9,16.3 L111.9,16.3 Z" id="Fill-21" fill="#FFFFFF" fill-rule="nonzero"></path>
                    <path d="M200.099639,17.9953252 L200.099639,19.6650978 C200.099639,20.5134362 199.622413,21 198.789899,21 C197.966157,21 197.493317,20.5223088 197.493317,19.6897122 L197.493317,19.6897122 L197.493317,17.9970425 L198.106518,17.9970425 L198.106518,19.669391 C198.106518,20.1636826 198.352149,20.4281444 198.798086,20.4281444 C199.241392,20.4281444 199.485561,20.1711242 199.485561,19.6897122 L199.485561,19.6897122 L199.485561,17.9953252 L200.099639,17.9953252 Z M194.643323,17.9954397 L194.643323,19.1895246 L196.0288,19.1895246 L196.0288,17.9954397 L196.642585,17.9954397 L196.642585,20.9557513 L196.0288,20.9557513 L196.0288,19.7533662 L194.643323,19.7533662 L194.643323,20.9557513 L194.029538,20.9557513 L194.029538,17.9954397 L194.643323,17.9954397 Z M205.891241,17.9950103 L206.578131,20.0308507 L207.247768,17.9967276 L207.88407,17.9967276 L206.832535,20.9556082 L206.320218,20.9556082 L205.632744,19.0119288 L204.944976,20.9556082 L204.436754,20.9556082 L203.382587,17.9967276 L204.035849,17.9967276 L204.703732,20.0308507 L205.390329,17.9950103 L205.891241,17.9950103 Z M202.284119,17.995411 L203.611112,20.9540054 L202.968084,20.9540054 L202.696428,20.3377866 L201.312413,20.3377866 L201.036663,20.9540054 L200.410304,20.9540054 L201.742853,17.995411 L202.284119,17.995411 Z M210.604289,17.9973859 L210.604289,18.5366131 L208.984,18.5366131 L208.984,19.1425282 L210.10016,19.1425282 L210.10016,19.6817554 L208.984,19.6817554 L208.984,20.4147496 L210.66248,20.4147496 L210.66248,20.9536906 L208.378988,20.9536906 L208.378988,17.9973859 L210.604289,17.9973859 Z M212,17.9950103 L212,20.9516012 L211.394695,20.9516012 L211.394695,17.9950103 L212,17.9950103 Z M202.002812,18.7444331 L201.540499,19.8039975 L202.468342,19.8039975 L202.002812,18.7444331 Z M201.168748,14.4224976 C201.187756,14.4219431 201.21612,14.4351089 201.22694,14.4568612 C201.236005,14.4737478 201.2439,14.5158213 201.210272,14.5392908 C200.681288,14.9110828 199.076205,16.0092861 198.302759,16.2225155 C198.302759,16.2225155 196.87342,16.6996343 195.631521,14.6114168 C195.631521,14.6114168 199.787073,14.4697408 201.168748,14.4224976 Z M204.826313,14.4224976 C206.207696,14.4697408 210.362956,14.6114168 210.362956,14.6114168 C209.121349,16.6996343 207.691717,16.2225155 207.691717,16.2225155 C206.918564,16.0092861 205.313774,14.9110828 204.784205,14.5392908 C204.751162,14.5158213 204.758765,14.4737478 204.767537,14.4568612 C204.778649,14.4351089 204.807014,14.4219431 204.826313,14.4224976 Z M194.159488,9.82505963 C194.159488,9.82505963 198.860693,12.2959453 201.291272,13.8987438 C201.308817,13.9104786 201.331333,13.9339482 201.319344,13.9765941 C201.313203,13.999205 201.291564,14.0192399 201.26203,14.0195262 C200.392086,14.020671 197.097997,14.024678 197.01495,14.0095087 C197.01495,14.0095087 196.58919,13.9929083 196.062545,13.7951344 C196.062545,13.7951344 194.890826,13.4304977 194.282304,12.1282239 C194.282304,12.1282239 193.739284,11.0660836 194.159488,9.82505963 Z M211.834989,9.82505963 C212.255486,11.0660836 211.712173,12.1282239 211.712173,12.1282239 C211.103651,13.4304977 209.932224,13.7951344 209.932224,13.7951344 C209.406164,13.9929083 208.980111,14.0095087 208.980111,14.0095087 C208.906032,14.0229925 206.295295,14.0213247 205.104851,14.0199835 L204.732739,14.0195262 C204.70379,14.0192399 204.681566,13.999205 204.675133,13.9765941 C204.663144,13.9339482 204.685953,13.9104786 204.704082,13.8987438 C207.133784,12.2959453 211.834989,9.82505963 211.834989,9.82505963 Z M196.754991,5.33750994 C196.754991,5.33750994 199.64525,8.76406424 201.75183,13.2642073 C201.762649,13.2876769 201.766743,13.3274606 201.741888,13.3480681 C201.724635,13.3620925 201.693346,13.3715376 201.660596,13.3557958 C200.871359,12.972269 197.589552,11.3176658 196.206414,10.0268405 C196.206414,10.0268405 195.341734,9.34708221 195.29641,8.25574813 C195.19611,6.74024487 196.754991,5.33750994 196.754991,5.33750994 Z M209.239486,5.33750994 C209.239486,5.33750994 210.798367,6.74024487 210.698944,8.25574813 C210.652742,9.34708221 209.788355,10.0268405 209.788355,10.0268405 C208.405802,11.3176658 205.12341,12.972269 204.333881,13.3557958 C204.302008,13.3715376 204.270134,13.3620925 204.253466,13.3480681 C204.228318,13.3274606 204.23212,13.2876769 204.242939,13.2642073 C206.349811,8.76406424 209.239486,5.33750994 209.239486,5.33750994 Z M201.67931,3 C201.67931,3 203.317729,5.06503419 202.521474,12.8566386 C202.517088,12.8978534 202.494864,12.9121641 202.475565,12.9173159 C202.445446,12.9250437 202.417081,12.9144538 202.397489,12.8869773 C201.872014,12.1439657 199.476233,8.6673239 198.989649,6.5530609 C198.989649,6.5530609 198.725596,5.52955955 198.980292,4.83634918 C198.980292,4.83634918 199.342305,3.51547146 200.807905,3.16657656 C200.807905,3.16657656 201.230449,3.06182223 201.67931,3 Z M204.315459,3 C204.764613,3.06182223 205.186572,3.16657656 205.186572,3.16657656 C206.653049,3.51547146 207.014185,4.83634918 207.014185,4.83634918 C207.269173,5.52955955 207.005705,6.5530609 207.005705,6.5530609 C206.519121,8.6673239 204.122755,12.1439657 203.59728,12.8869773 C203.577688,12.9144538 203.549031,12.9250437 203.519497,12.9173159 C203.499905,12.9121641 203.477681,12.8978534 203.47388,12.8566386 C202.677041,5.06503419 204.315459,3 204.315459,3 Z" id="Fill-23" fill="#303030"></path>
                    <path d="M200.099639,41.9953252 L200.099639,43.6650978 C200.099639,44.5134362 199.622413,45 198.789899,45 C197.966157,45 197.493317,44.5223088 197.493317,43.6897122 L197.493317,43.6897122 L197.493317,41.9970425 L198.106518,41.9970425 L198.106518,43.669391 C198.106518,44.1636826 198.352149,44.4281444 198.798086,44.4281444 C199.241392,44.4281444 199.485561,44.1711242 199.485561,43.6897122 L199.485561,43.6897122 L199.485561,41.9953252 L200.099639,41.9953252 Z M194.643323,41.9954397 L194.643323,43.1895246 L196.0288,43.1895246 L196.0288,41.9954397 L196.642585,41.9954397 L196.642585,44.9557513 L196.0288,44.9557513 L196.0288,43.7533662 L194.643323,43.7533662 L194.643323,44.9557513 L194.029538,44.9557513 L194.029538,41.9954397 L194.643323,41.9954397 Z M205.891241,41.9950103 L206.578131,44.0308507 L207.247768,41.9967276 L207.88407,41.9967276 L206.832535,44.9556082 L206.320218,44.9556082 L205.632744,43.0119288 L204.944976,44.9556082 L204.436754,44.9556082 L203.382587,41.9967276 L204.035849,41.9967276 L204.703732,44.0308507 L205.390329,41.9950103 L205.891241,41.9950103 Z M202.284119,41.995411 L203.611112,44.9540054 L202.968084,44.9540054 L202.696428,44.3377866 L201.312413,44.3377866 L201.036663,44.9540054 L200.410304,44.9540054 L201.742853,41.995411 L202.284119,41.995411 Z M210.604289,41.9973859 L210.604289,42.5366131 L208.984,42.5366131 L208.984,43.1425282 L210.10016,43.1425282 L210.10016,43.6817554 L208.984,43.6817554 L208.984,44.4147496 L210.66248,44.4147496 L210.66248,44.9536906 L208.378988,44.9536906 L208.378988,41.9973859 L210.604289,41.9973859 Z M212,41.9950103 L212,44.9516012 L211.394695,44.9516012 L211.394695,41.9950103 L212,41.9950103 Z M202.002812,42.7444331 L201.540499,43.8039975 L202.468342,43.8039975 L202.002812,42.7444331 Z M201.168748,38.4224976 C201.187756,38.4219431 201.21612,38.4351089 201.22694,38.4568612 C201.236005,38.4737478 201.2439,38.5158213 201.210272,38.5392908 C200.681288,38.9110828 199.076205,40.0092861 198.302759,40.2225155 C198.302759,40.2225155 196.87342,40.6996343 195.631521,38.6114168 C195.631521,38.6114168 199.787073,38.4697408 201.168748,38.4224976 Z M204.826313,38.4224976 C206.207696,38.4697408 210.362956,38.6114168 210.362956,38.6114168 C209.121349,40.6996343 207.691717,40.2225155 207.691717,40.2225155 C206.918564,40.0092861 205.313774,38.9110828 204.784205,38.5392908 C204.751162,38.5158213 204.758765,38.4737478 204.767537,38.4568612 C204.778649,38.4351089 204.807014,38.4219431 204.826313,38.4224976 Z M194.159488,33.8250596 C194.159488,33.8250596 198.860693,36.2959453 201.291272,37.8987438 C201.308817,37.9104786 201.331333,37.9339482 201.319344,37.9765941 C201.313203,37.999205 201.291564,38.0192399 201.26203,38.0195262 C200.392086,38.020671 197.097997,38.024678 197.01495,38.0095087 C197.01495,38.0095087 196.58919,37.9929083 196.062545,37.7951344 C196.062545,37.7951344 194.890826,37.4304977 194.282304,36.1282239 C194.282304,36.1282239 193.739284,35.0660836 194.159488,33.8250596 Z M211.834989,33.8250596 C212.255486,35.0660836 211.712173,36.1282239 211.712173,36.1282239 C211.103651,37.4304977 209.932224,37.7951344 209.932224,37.7951344 C209.406164,37.9929083 208.980111,38.0095087 208.980111,38.0095087 C208.906032,38.0229925 206.295295,38.0213247 205.104851,38.0199835 L204.732739,38.0195262 C204.70379,38.0192399 204.681566,37.999205 204.675133,37.9765941 C204.663144,37.9339482 204.685953,37.9104786 204.704082,37.8987438 C207.133784,36.2959453 211.834989,33.8250596 211.834989,33.8250596 Z M196.754991,29.3375099 C196.754991,29.3375099 199.64525,32.7640642 201.75183,37.2642073 C201.762649,37.2876769 201.766743,37.3274606 201.741888,37.3480681 C201.724635,37.3620925 201.693346,37.3715376 201.660596,37.3557958 C200.871359,36.972269 197.589552,35.3176658 196.206414,34.0268405 C196.206414,34.0268405 195.341734,33.3470822 195.29641,32.2557481 C195.19611,30.7402449 196.754991,29.3375099 196.754991,29.3375099 Z M209.239486,29.3375099 C209.239486,29.3375099 210.798367,30.7402449 210.698944,32.2557481 C210.652742,33.3470822 209.788355,34.0268405 209.788355,34.0268405 C208.405802,35.3176658 205.12341,36.972269 204.333881,37.3557958 C204.302008,37.3715376 204.270134,37.3620925 204.253466,37.3480681 C204.228318,37.3274606 204.23212,37.2876769 204.242939,37.2642073 C206.349811,32.7640642 209.239486,29.3375099 209.239486,29.3375099 Z M201.67931,27 C201.67931,27 203.317729,29.0650342 202.521474,36.8566386 C202.517088,36.8978534 202.494864,36.9121641 202.475565,36.9173159 C202.445446,36.9250437 202.417081,36.9144538 202.397489,36.8869773 C201.872014,36.1439657 199.476233,32.6673239 198.989649,30.5530609 C198.989649,30.5530609 198.725596,29.5295595 198.980292,28.8363492 C198.980292,28.8363492 199.342305,27.5154715 200.807905,27.1665766 C200.807905,27.1665766 201.230449,27.0618222 201.67931,27 Z M204.315459,27 C204.764613,27.0618222 205.186572,27.1665766 205.186572,27.1665766 C206.653049,27.5154715 207.014185,28.8363492 207.014185,28.8363492 C207.269173,29.5295595 207.005705,30.5530609 207.005705,30.5530609 C206.519121,32.6673239 204.122755,36.1439657 203.59728,36.8869773 C203.577688,36.9144538 203.549031,36.9250437 203.519497,36.9173159 C203.499905,36.9121641 203.477681,36.8978534 203.47388,36.8566386 C202.677041,29.0650342 204.315459,27 204.315459,27 Z" id="Fill-31" fill="#787878"></path>
                    <path d="M151.8,13.7 L154.2,13.6 L154.2,12.7 L152.6,12.8 L152.6,9.1 L151.3,9.2 L151.3,12.9 L147.5,13.1 L147.5,13.9 L150.1,13.7 L149,15.2 L147.6,15.3 L147.6,16.1 L150,16 L151.8,13.7 Z M155,12 L155,12.8 L155.9,12.8 L158.3,11.6 L160.7,12.5 L161.6,12.5 L161.6,11.6 L161,11.6 L159.4,11 L161.5,9.9 L161.5,8.6 L157.2,8.8 L156.2,8.3 L154.9,10.4 L156,10.8 L156.7,9.7 L160.3,9.5 L160.3,9.7 L158.3,10.7 L156.8,10.1 L156.3,10.9 L157.2,11.3 L155.7,12.1 L155,12 Z M161,13.9 L159.7,14 L160.6,15.6 L161.9,15.5 L161,13.9 Z M155,15.8 L156.3,15.7 L157.2,14 L155.9,14.1 L155,15.8 Z M152,13.9 L153,15.9 L154.4,15.8 L153.4,13.8 L152,13.9 Z M150.6,12.5 L149.6,11.2 L148.2,11.3 L149.2,12.6 L150.6,12.5 Z M150.6,10.8 L149.6,9.5 L148.2,9.6 L149.2,10.9 L150.6,10.8 Z M161.7,13.6 L161.7,12.8 L159,13 L159,12.6 L157.7,12.7 L157.7,13 L155,13.1 L155,13.9 L157.7,13.8 L157.7,15.7 L159,15.6 L159,13.7 L161.7,13.6 Z M149.2,21 C148.3,21 147.5,20.7 146.9,20.1 C146.3,19.5 146,18.7 146,17.8 L146,6.2 C146,5.3 146.3,4.5 146.9,3.9 C147.5,3.3 148.3,3 149.2,3 L160.8,3 C161.7,3 162.5,3.3 163.1,3.9 C163.7,4.5 164,5.3 164,6.2 L164,17.8 C164,18.7 163.7,19.5 163.1,20.1 C162.5,20.7 161.7,21 160.8,21 L149.2,21 Z M163.5,6.4 L163.5,6.2 C163.5,5.4 163.2,4.8 162.7,4.3 C162.2,3.8 161.6,3.5 160.8,3.5 L149.2,3.5 C148.8,3.5 148.5,3.6 148.1,3.7 C147.8,3.8 147.5,4 147.2,4.3 C146.9,4.6 146.8,4.8 146.6,5.2 C146.5,5.5 146.4,5.9 146.4,6.3 L146.4,7.4 L163.5,6.4 Z M163.5,17.5 L146.6,18.5 C146.8,19.1 147.1,19.6 147.6,20 C148.1,20.4 148.6,20.6 149.3,20.6 L160.9,20.6 C161.7,20.6 162.3,20.3 162.8,19.8 C163.3,19.3 163.6,18.7 163.6,17.9 L163.6,17.5 L163.5,17.5 Z" id="Fill-25" fill="#303030" fill-rule="nonzero"></path>
                    <path d="M187.2,4.9 C188.1,5.6 188.7,6.4 189,7.3 C189.3,8.2 189.3,9.3 189.1,10.4 C189.1,10.6 189,10.8 188.8,11 C188.7,11.2 188.5,11.2 188.3,11.2 C188.1,11.2 187.9,11.1 187.7,11 C187.5,10.8 187.5,10.6 187.5,10.4 C187.6,10.3 187.6,9.7 187.6,8.7 C187.6,7.7 187.2,6.8 186.3,6.1 C185.3,5.5 184.6,5.3 184,5.3 C183.4,5.3 183,5.4 183,5.4 C182.8,5.4 182.6,5.3 182.4,5.2 C182.2,5 182.2,4.9 182.2,4.6 C182.2,4.4 182.3,4.2 182.4,4.1 C182.6,4 182.7,3.9 182.9,3.8 C183.7,3.7 184.4,3.7 185.2,3.9 C186,4.1 186.6,4.4 187.2,4.9 L187.2,4.9 Z M186,7.4 C186.2,7.6 186.4,8 186.5,8.4 C186.6,8.8 186.6,9.4 186.4,10 C186.3,10.3 186.1,10.5 185.7,10.5 C185.5,10.5 185.4,10.4 185.2,10.3 C185.1,10.1 185,10 185.1,9.8 C185.1,9.6 185.1,9.4 185.1,9.2 C185.1,9 185,8.8 184.9,8.6 C184.8,8.4 184.6,8.3 184.4,8.2 C184.2,8.1 184,8 183.7,8.1 C183.1,8.1 182.8,7.9 182.8,7.5 C182.8,7.1 183.1,6.8 183.6,6.7 C183.9,6.6 184.3,6.7 184.8,6.8 C185.2,6.7 185.7,7 186,7.4 L186,7.4 Z M180,14.5 C180.1,15.3 179.9,16 179.4,16.6 C178.9,17.2 178.2,17.7 177.3,17.9 C176.4,18.1 175.6,17.9 174.9,17.6 C174.2,17.2 173.7,16.6 173.6,15.9 C173.5,15.1 173.7,14.4 174.2,13.8 C174.7,13.2 175.4,12.7 176.3,12.6 C177.2,12.4 178,12.5 178.7,12.9 C179.3,13.1 179.8,13.7 180,14.5 L180,14.5 Z M175.9,16.5 C176.2,16.4 176.5,16.3 176.6,16 C176.8,15.8 176.8,15.5 176.8,15.3 C176.7,15 176.6,14.8 176.3,14.7 C176,14.6 175.8,14.5 175.4,14.6 C175.1,14.7 174.8,14.8 174.7,15.1 C174.5,15.3 174.5,15.6 174.5,15.9 C174.6,16.2 174.7,16.4 175,16.5 C175.3,16.6 175.6,16.6 175.9,16.5 Z M177.5,14.9 C177.6,14.9 177.7,14.8 177.8,14.7 C177.9,14.6 177.9,14.5 177.9,14.4 C177.9,14.3 177.8,14.2 177.7,14.2 C177.6,14.2 177.5,14.1 177.3,14.2 C177.1,14.3 177.1,14.3 177,14.4 C176.9,14.5 176.9,14.6 176.9,14.7 C176.9,14.8 177,14.9 177.1,14.9 C177.2,14.9 177.4,15 177.5,14.9 L177.5,14.9 Z M186.4,13.2 C186.7,13.8 186.6,14.6 186.3,15.4 C186,16.2 185.3,17.1 184.4,18 C183.3,19 181.6,19.7 179.1,20.1 C176.6,20.5 174.1,20.1 171.6,19 C169.4,17.6 168.4,16.2 168.7,14.6 C169,13 169.4,11.9 169.9,11.4 C170.3,10.9 171,10.1 171.9,9.1 C172.8,8.1 173.8,7.4 174.8,6.8 C175.7,6.4 176.5,6.1 177,6.1 C177.6,6.1 177.9,6.2 178.1,6.3 C178.3,6.4 178.5,6.5 178.6,6.7 C178.7,6.9 178.8,7.1 178.9,7.5 C178.9,7.9 178.8,8.3 178.7,8.5 C178.6,8.8 178.5,8.9 178.6,9.1 C178.7,9.1 179.1,9 179.8,8.8 C180.4,8.5 181.1,8.4 181.9,8.4 C182.8,8.5 183.4,8.7 183.7,9 C183.9,9.3 184.1,9.6 184.1,9.7 C184.1,9.9 184.1,10.1 184.1,10.4 C184.1,10.7 184,10.9 183.8,11.1 C183.6,11.3 183.6,11.5 183.7,11.6 C183.8,11.7 184,11.8 184.2,11.8 C184.4,11.8 184.8,11.9 185.3,12.1 C185.7,12.2 186.1,12.6 186.4,13.2 L186.4,13.2 Z M177.8,18.5 C179.5,18.2 180.9,17.7 181.9,16.8 C182.9,15.9 183.4,14.9 183.3,13.8 C183.1,12.7 182.4,11.8 181.2,11.3 C180,10.7 178.5,10.5 176.8,10.7 C175.1,11 173.7,11.5 172.7,12.4 C171.7,13.3 171.2,14.3 171.3,15.4 C171.5,16.5 172.2,17.4 173.4,18 C174.6,18.6 176.1,18.7 177.8,18.5 L177.8,18.5 Z" id="Fill-27" fill="#303030" fill-rule="nonzero"></path>
                    <path d="M133.7,37.2 C133.9,37.1 133.9,36.9 133.9,36.7 C133.9,36.5 133.8,36.3 133.7,36.2 C133.6,36.1 133.3,36 133,36 C132.8,36 132.6,36.1 132.5,36.2 C132.4,36.3 132.3,36.5 132.3,36.7 C132.3,36.9 132.4,37.1 132.5,37.2 C132.6,37.3 132.8,37.4 133,37.4 C133.4,37.4 133.6,37.4 133.7,37.2 L133.7,37.2 Z M137.7,37.2 C137.9,37.1 137.9,36.9 137.9,36.7 C137.9,36.5 137.8,36.3 137.7,36.2 C137.5,36.1 137.3,36 137,36 C136.8,36 136.6,36.1 136.5,36.2 C136.4,36.3 136.3,36.5 136.3,36.7 C136.3,36.9 136.4,37.1 136.5,37.2 C136.6,37.3 136.8,37.4 137,37.4 C137.4,37.4 137.6,37.4 137.7,37.2 L137.7,37.2 Z M141.2,38.4 C141.2,39.2 140.9,40 140.5,40.7 C140,41.4 139.4,42 138.7,42.6 L139.2,44.4 L137.2,43.3 C136.8,43.4 136.5,43.5 136.1,43.5 C135.7,43.6 135.4,43.6 135,43.6 C133.2,43.6 131.8,43.1 130.6,42.1 C129.4,41.1 128.8,39.9 128.8,38.4 C128.8,36.9 129.4,35.7 130.6,34.7 C131.8,33.7 133.2,33.2 135,33.2 C136.7,33.2 138.1,33.8 139.3,34.7 C140.6,35.6 141.2,36.9 141.2,38.4 L141.2,38.4 Z M130.7,30.7 C130.4,30.7 130.2,30.8 130,30.9 C129.8,31.1 129.7,31.3 129.7,31.6 C129.7,31.9 129.8,32.1 130,32.3 C130.2,32.5 130.5,32.5 130.7,32.5 C131,32.5 131.2,32.4 131.4,32.3 C131.6,32.1 131.6,31.9 131.6,31.6 C131.6,31.3 131.5,31.1 131.4,30.9 C131.2,30.8 131,30.7 130.7,30.7 L130.7,30.7 Z M126.3,32.3 C126.5,32.1 126.5,31.9 126.5,31.6 C126.5,31.3 126.4,31.1 126.3,30.9 C126.1,30.7 125.9,30.7 125.6,30.7 C125.3,30.7 125.1,30.8 124.9,30.9 C124.7,31.1 124.6,31.3 124.6,31.6 C124.6,31.9 124.7,32.1 124.9,32.3 C125.1,32.5 125.4,32.5 125.7,32.5 C125.9,32.6 126.1,32.5 126.3,32.3 L126.3,32.3 Z M134.6,32.7 L134.6,32.7 C132.8,32.7 131.4,33.3 130.2,34.4 C129.1,35.5 128.5,36.8 128.4,38.5 C128.4,39 128.5,39.5 128.6,40 C128.4,40 128.1,40 127.9,40 C127.5,40 127,40 126.6,39.9 C126.2,39.8 125.8,39.7 125.3,39.7 L122.8,41 L123.5,38.8 C122.6,38.2 121.9,37.4 121.4,36.6 C120.9,35.8 120.6,34.9 120.6,33.9 C120.7,32.1 121.4,30.7 122.7,29.5 C124.1,28.3 125.8,27.7 127.8,27.7 C129.6,27.7 131.2,28.2 132.6,29.1 C134,30 134.8,31.2 135.2,32.7 L134.6,32.7 L134.6,32.7 Z" id="Fill-29" fill="#787878" fill-rule="nonzero"></path>
                    <path d="M151.8,37.7 L154.2,37.6 L154.2,36.7 L152.6,36.8 L152.6,33.1 L151.3,33.2 L151.3,36.9 L147.5,37.1 L147.5,37.9 L150.1,37.7 L149,39.2 L147.6,39.3 L147.6,40.1 L150,40 L151.8,37.7 Z M155,36 L155,36.8 L155.9,36.8 L158.3,35.6 L160.7,36.5 L161.6,36.5 L161.6,35.6 L161,35.6 L159.4,35 L161.5,33.9 L161.5,32.4 L157.2,32.6 L156.2,32.1 L154.9,34.2 L156,34.6 L156.7,33.5 L160.3,33.3 L160.3,33.5 L158.3,34.5 L156.8,33.9 L156.3,34.7 L157.2,35.1 L155.7,35.9 L155,36 Z M161,37.9 L159.7,38 L160.6,39.6 L161.9,39.5 L161,37.9 Z M155,39.8 L156.3,39.7 L157.2,38 L155.9,38.1 L155,39.8 Z M152,37.9 L153,39.9 L154.4,39.8 L153.4,37.8 L152,37.9 Z M150.6,36.5 L149.6,35.2 L148.2,35.3 L149.2,36.6 L150.6,36.5 Z M150.6,34.8 L149.6,33.5 L148.2,33.6 L149.2,34.9 L150.6,34.8 Z M161.7,37.6 L161.7,36.8 L159,37 L159,36.6 L157.7,36.7 L157.7,37 L155,37.1 L155,37.9 L157.7,37.8 L157.7,39.7 L159,39.6 L159,37.7 L161.7,37.6 Z M149.2,45 C148.3,45 147.5,44.7 146.9,44.1 C146.3,43.5 146,42.7 146,41.8 L146,30.2 C146,29.3 146.3,28.5 146.9,27.9 C147.5,27.3 148.3,27 149.2,27 L160.8,27 C161.7,27 162.5,27.3 163.1,27.9 C163.7,28.5 164,29.3 164,30.2 L164,41.8 C164,42.7 163.7,43.5 163.1,44.1 C162.5,44.7 161.7,45 160.8,45 L149.2,45 L149.2,45 Z M163.5,30.4 L163.5,30.3 C163.5,29.5 163.2,28.9 162.7,28.4 C162.2,27.9 161.6,27.6 160.8,27.6 L149.2,27.6 C148.8,27.6 148.5,27.7 148.1,27.8 C147.8,27.9 147.5,28.1 147.2,28.4 C146.9,28.7 146.8,28.9 146.6,29.3 C146.5,29.6 146.4,30 146.4,30.4 L146.4,31.5 L163.5,30.4 Z M163.5,41.5 L146.6,42.5 C146.8,43.1 147.1,43.6 147.6,44 C148.1,44.4 148.6,44.6 149.3,44.6 L160.9,44.6 C161.7,44.6 162.3,44.3 162.8,43.8 C163.3,43.3 163.6,42.7 163.6,41.9 L163.6,41.5 L163.5,41.5 Z" id="Fill-33" fill="#787878" fill-rule="nonzero"></path>
                    <path d="M187.2,28.9 C188.1,29.6 188.7,30.4 189,31.3 C189.3,32.2 189.3,33.3 189.1,34.4 C189.1,34.6 189,34.8 188.8,35 C188.7,35.2 188.5,35.2 188.3,35.2 C188.1,35.2 187.9,35.1 187.7,35 C187.5,34.8 187.5,34.6 187.5,34.4 C187.6,34.3 187.6,33.7 187.6,32.7 C187.6,31.7 187.2,30.8 186.3,30.1 C185.3,29.5 184.6,29.3 184,29.3 C183.4,29.3 183.1,29.4 183.1,29.4 C182.9,29.4 182.7,29.3 182.5,29.2 C182.3,29 182.3,28.9 182.3,28.6 C182.3,28.4 182.4,28.2 182.5,28.1 C182.7,28 182.8,27.9 183,27.8 C183.8,27.7 184.5,27.7 185.3,27.9 C185.9,28.1 186.6,28.4 187.2,28.9 L187.2,28.9 Z M186,31.4 C186.2,31.6 186.4,32 186.5,32.4 C186.6,32.8 186.6,33.4 186.4,34 C186.3,34.3 186.1,34.5 185.7,34.5 C185.5,34.5 185.4,34.4 185.2,34.3 C185.1,34.1 185,34 185.1,33.8 C185.1,33.6 185.1,33.4 185.1,33.2 C185.1,33 185,32.8 184.9,32.6 C184.8,32.4 184.6,32.3 184.4,32.2 C184.2,32.1 184,32 183.7,32.1 C183.1,32.1 182.8,31.9 182.8,31.5 C182.8,31.1 183.1,30.8 183.6,30.7 C183.9,30.6 184.3,30.7 184.8,30.8 C185.2,30.7 185.7,31 186,31.4 L186,31.4 Z M180,38.5 C180.1,39.3 179.9,40 179.4,40.6 C178.9,41.2 178.2,41.7 177.3,41.9 C176.4,42.1 175.6,41.9 174.9,41.6 C174.2,41.2 173.7,40.6 173.6,39.9 C173.5,39.1 173.7,38.4 174.2,37.8 C174.7,37.2 175.4,36.7 176.3,36.6 C177.2,36.4 178,36.5 178.7,36.9 C179.3,37.1 179.8,37.7 180,38.5 L180,38.5 Z M175.9,40.5 C176.2,40.4 176.5,40.3 176.6,40 C176.8,39.8 176.8,39.5 176.8,39.3 C176.7,39 176.6,38.8 176.3,38.7 C176,38.6 175.8,38.5 175.4,38.6 C175.1,38.7 174.8,38.8 174.7,39.1 C174.5,39.3 174.5,39.6 174.5,39.9 C174.5,40.2 174.7,40.4 175,40.5 C175.3,40.6 175.6,40.6 175.9,40.5 Z M177.5,38.9 C177.6,38.9 177.7,38.8 177.8,38.7 C177.9,38.6 177.9,38.5 177.9,38.4 C177.9,38.3 177.8,38.2 177.7,38.2 C177.6,38.2 177.5,38.1 177.3,38.2 C177.2,38.2 177.1,38.3 177,38.4 C176.9,38.5 176.9,38.6 176.9,38.7 C176.9,38.8 177,38.9 177.1,38.9 C177.2,38.9 177.4,39 177.5,38.9 L177.5,38.9 Z M186.4,37.2 C186.7,37.8 186.6,38.6 186.3,39.4 C186,40.2 185.3,41.1 184.4,42 C183.3,43 181.6,43.7 179.1,44.1 C176.6,44.5 174.1,44.1 171.6,43 C169.4,41.6 168.4,40.2 168.7,38.6 C169,37 169.4,35.9 169.9,35.4 C170.3,34.9 171,34.1 171.9,33.1 C172.8,32.1 173.8,31.4 174.8,30.8 C175.7,30.4 176.5,30.1 177,30.1 C177.6,30.1 177.9,30.2 178.1,30.3 C178.3,30.4 178.5,30.5 178.6,30.7 C178.7,30.9 178.8,31.1 178.9,31.5 C178.9,31.9 178.8,32.3 178.7,32.5 C178.6,32.7 178.5,32.9 178.6,33.1 C178.7,33.1 179.1,33 179.8,32.8 C180.4,32.5 181.1,32.4 181.9,32.4 C182.8,32.5 183.4,32.7 183.7,33 C183.9,33.3 184.1,33.6 184.1,33.7 C184.1,33.9 184.1,34.1 184.1,34.4 C184.1,34.7 184,34.9 183.8,35.1 C183.6,35.3 183.6,35.5 183.7,35.6 C183.8,35.7 184,35.8 184.2,35.8 C184.4,35.8 184.8,35.9 185.3,36.1 C185.7,36.2 186.1,36.6 186.4,37.2 L186.4,37.2 Z M177.8,42.5 C179.5,42.2 180.9,41.7 181.9,40.8 C182.9,39.9 183.4,38.9 183.3,37.8 C183.1,36.7 182.4,35.8 181.2,35.3 C180,34.7 178.5,34.5 176.8,34.7 C175.1,35 173.7,35.5 172.7,36.4 C171.7,37.3 171.2,38.3 171.3,39.4 C171.5,40.5 172.2,41.4 173.4,42 C174.6,42.6 176.1,42.7 177.8,42.5 L177.8,42.5 Z" id="Fill-35" fill="#787878" fill-rule="nonzero"></path>
                    <path d="M241,12.1 C241.2,12.1 241.4,12.2 241.6,12.3 C241.8,12.4 241.8,12.6 241.8,12.8 C241.8,13 241.7,13.2 241.6,13.3 C241.5,13.4 241.3,13.5 241,13.5 C240.8,13.5 240.6,13.4 240.4,13.3 C240.2,13.2 240.2,13 240.2,12.8 C240.2,12.6 240.3,12.4 240.4,12.3 C240.6,12.2 240.8,12.1 241,12.1 L241,12.1 Z M241.7,6.7 L241.5,11.4 L240.4,11.4 L240.2,6.7 L241.7,6.7 Z M236.8,14.2 C235.7,13.1 235.1,11.7 235,10 C235,8.3 235.6,6.9 236.8,5.8 C238,4.7 239.3,4 241,4 C242.7,4 244.1,4.6 245.2,5.8 C246.3,6.9 246.9,8.3 247,10 C247,11.7 246.4,13.1 245.2,14.2 C244.1,15.3 242.7,15.9 241,16 C239.3,16 237.9,15.4 236.8,14.2 L236.8,14.2 Z M244.7,13.7 C245.7,12.7 246.2,11.5 246.2,10 C246.2,8.5 245.6,7.3 244.7,6.3 C243.7,5.3 242.5,4.8 241,4.8 C239.5,4.8 238.3,5.4 237.3,6.3 C236.3,7.3 235.8,8.5 235.8,10 C235.8,11.5 236.4,12.7 237.3,13.7 C238.3,14.7 239.5,15.2 241,15.2 C242.5,15.2 243.7,14.7 244.7,13.7 L244.7,13.7 Z" id="Fill-37" fill="#CA141D" fill-rule="nonzero"></path>
                    <path d="M266.8,3.1 C266.7,3 266.7,2.8 266.7,2.6 C266.7,2.4 266.8,2.3 267,2.3 C267.2,2.3 267.3,2.3 267.5,2.4 L271.2,6.1 C271.3,6.2 271.3,6.3 271.3,6.4 C271.3,6.5 271.3,6.6 271.2,6.7 L267.5,10.4 C267.4,10.5 267.2,10.5 267,10.5 C266.8,10.5 266.7,10.4 266.7,10.2 C266.7,10 266.7,9.9 266.8,9.8 L270.2,6.4 L266.8,3.1 Z" id="Fill-39" fill="#A3A3A3" fill-rule="nonzero"></path>
                </g>
            </g>
            <g id="编组" transform="translate(0.000000, 36.000000)">
                <rect id="矩形" x="0" y="0" width="24" height="24"></rect>
                <path d="M9.5,8.2 C10.6,8.2 11.5,7 11.5,5.5 C11.5,4 10.6,2.8 9.5,2.8 C8.4,2.8 7.5,4 7.5,5.5 C7.6,7 8.5,8.2 9.5,8.2 Z M14.4,8.5 C15.5,8.5 16.7,7.3 16.8,5.9 C16.8,4.7 15.9,3.3 14.9,3.3 C13.8,3.3 12.8,4.5 12.7,5.9 C12.6,7.3 13.4,8.5 14.4,8.5 Z M8.5,15.8 C7.9,15.8 7.4,16.4 7.4,17 C7.4,17.6 7.9,18.1 8.5,18.2 L8.5,18.2 L9.7,18.2 L9.7,15.8 L8.5,15.8 L8.5,15.8 Z M18.3,16.2 L18.3,16.2 C18,15.9 17.8,15.6 17.5,15.5 C16.8,14.9 16.1,14.2 15.7,13.7 C15,13 14.1,11.9 13.8,11.3 L13.8,11.3 C13.3,10.6 12.5,10.2 11.6,10.2 C10.6,10.2 9.7,10.8 9.2,11.6 L9.2,11.6 C9.2,11.6 8.7,12.6 7.8,13.4 C6.9,14.3 5.2,15.2 4.7,16.7 C4.7,16.8 4.7,16.9 4.7,16.9 C4.6,17.2 4.5,17.5 4.5,17.8 C4.5,19.5 5.9,20.8 7.5,20.8 C7.6,20.8 7.7,20.8 7.8,20.8 L7.8,20.8 C7.8,20.8 9.5,20.6 10.1,20.5 C10.7,20.4 11.9,20.1 13.3,20.5 C14.7,20.9 15.3,21 15.8,21 L15.8,21 C17.5,21 18.8,19.6 18.8,18 C18.8,17.3 18.6,16.7 18.3,16.2 L18.3,16.2 Z M10.8,19.3 L8.4,19.3 L8.4,19.3 C7.3,19.2 6.4,18.2 6.4,17.1 C6.4,16 7.3,15 8.4,14.9 L8.4,14.9 L9.8,14.9 L9.8,13.2 L10.9,13.2 L10.8,19.3 L10.8,19.3 Z M15.6,19.2 L13.2,19.2 C12.2,19.2 11.4,18.4 11.4,17.4 L11.4,17.3 L11.4,17.3 L11.4,14.7 L12.5,14.7 L12.5,17.4 C12.5,17.8 12.8,18.1 13.2,18.1 L14.6,18.1 L14.6,14.7 L15.7,14.7 L15.6,19.2 L15.6,19.2 Z M18,8.3 C17.5,8.3 17.1,8.4 16.7,8.8 C16.2,9.3 15.9,10.1 15.9,10.9 C15.9,11.6 16.1,12.5 16.5,12.9 C16.9,13.3 17.4,13.4 18,13.4 C18.7,13.4 19.3,13.2 19.7,12.6 C20,12.2 20.1,11.4 20.1,10.8 C20.1,9.5 19.2,8.3 18,8.3 Z M7,11.3 C7.3,10.9 7.4,10.2 7.4,9.6 C7.4,8.1 6.5,6.9 5.4,6.9 C4.3,6.9 3.4,8.1 3.4,9.6 C3.4,11.1 4.3,12.3 5.4,12.3 C6,12.3 6.7,11.9 7,11.3 Z" id="形状_1_" fill="#303030" fill-rule="nonzero"></path>
            </g>
            <g id="编组" transform="translate(24.000000, 36.000000)">
                <rect id="矩形" x="0" y="0" width="24" height="24"></rect>
                <path d="M9.5,8.2 C10.6,8.2 11.5,7 11.5,5.5 C11.5,4 10.6,2.8 9.5,2.8 C8.4,2.8 7.5,4 7.5,5.5 C7.6,7 8.5,8.2 9.5,8.2 Z M8.5,15.8 C7.9,15.8 7.4,16.4 7.4,17 C7.4,17.6 7.9,18.1 8.5,18.2 L8.5,18.2 L9.7,18.2 L9.7,15.8 L8.5,15.8 L8.5,15.8 Z M14.4,8.5 C15.5,8.5 16.7,7.3 16.8,5.9 C16.8,4.7 15.9,3.3 14.9,3.3 C13.9,3.3 12.8,4.5 12.7,5.9 C12.6,7.3 13.4,8.5 14.4,8.5 Z M18,8.3 C17.5,8.3 17.1,8.4 16.7,8.8 C16.2,9.3 15.9,10.1 15.9,10.9 C15.9,11.6 16.1,12.5 16.5,12.9 C16.9,13.3 17.4,13.4 18,13.4 C18.7,13.4 19.3,13.2 19.7,12.6 C20,12.2 20.1,11.4 20.1,10.8 C20.1,9.5 19.2,8.3 18,8.3 Z M18.3,16.2 L18.3,16.2 C18,15.9 17.8,15.6 17.5,15.5 C16.8,14.9 16.1,14.2 15.7,13.7 C15,13 14.1,11.9 13.8,11.3 L13.8,11.3 C13.3,10.6 12.5,10.2 11.6,10.2 C10.6,10.2 9.7,10.8 9.2,11.6 L9.2,11.6 C9.2,11.6 8.7,12.6 7.8,13.4 C6.9,14.3 5.2,15.2 4.7,16.7 C4.7,16.8 4.7,16.9 4.7,16.9 C4.6,17.2 4.5,17.5 4.5,17.8 C4.5,19.5 5.9,20.8 7.5,20.8 C7.6,20.8 7.7,20.8 7.8,20.8 L7.8,20.8 C7.8,20.8 9.5,20.6 10.1,20.5 C10.7,20.4 11.9,20.1 13.3,20.5 C14.7,20.9 15.3,21 15.8,21 L15.8,21 C17.5,21 18.8,19.6 18.8,18 C18.8,17.3 18.6,16.7 18.3,16.2 L18.3,16.2 Z M10.8,19.3 L8.4,19.3 L8.4,19.3 C7.3,19.2 6.4,18.2 6.4,17.1 C6.4,16 7.3,15 8.4,14.9 L8.4,14.9 L9.8,14.9 L9.8,13.2 L10.9,13.2 L10.8,19.3 C10.9,19.3 10.8,19.3 10.8,19.3 Z M15.6,19.2 L13.2,19.2 C12.2,19.2 11.4,18.4 11.4,17.4 L11.4,17.3 L11.4,17.3 L11.4,14.7 L12.5,14.7 L12.5,17.4 C12.5,17.8 12.8,18.1 13.2,18.1 L14.6,18.1 L14.6,14.7 L15.7,14.7 L15.6,19.2 C15.7,19.2 15.6,19.2 15.6,19.2 Z M7,11.3 C7.3,10.9 7.4,10.2 7.4,9.6 C7.4,8.1 6.5,6.9 5.4,6.9 C4.3,6.9 3.4,8.1 3.4,9.6 C3.4,11.1 4.3,12.3 5.4,12.3 C6,12.3 6.7,11.9 7,11.3 Z" id="形状" fill="#787878" fill-rule="nonzero"></path>
            </g>
        </g>
    </g>
</svg>