<?xml version="1.0" encoding="UTF-8"?>
<svg width="24px" height="24px" viewBox="0 0 24 24" version="1.1" xmlns="http://www.w3.org/2000/svg" xmlns:xlink="http://www.w3.org/1999/xlink">
    <title>ic/24/web drop-down</title>
    <defs>
        <path d="M4.29591397,-2.80811183 L4.3291989,-2.77740972 L9.46787289,2.24454698 C10.1625944,2.92348894 10.1770678,4.01548299 9.51129298,4.71163545 L9.46787289,4.75552534 L4.3291989,9.77748204 C4.19540694,9.90823511 4.02503881,9.98145684 3.85028153,9.99714721 L3.80253582,10 L3.75471756,10 C3.56349288,9.99429441 3.37400934,9.92012176 3.22805448,9.77748204 C2.93484158,9.49092903 2.92436969,9.03269342 3.19663881,8.73387737 L3.22805448,8.70134846 L7.99968032,4.03810295 C8.29289322,3.75154994 8.30336511,3.29331434 8.03109599,2.99449828 L7.99968032,2.96196937 L3.22805448,-1.70127614 C2.92398184,-1.99844222 2.92398184,-2.48024363 3.22805448,-2.77740972 C3.37466093,-2.92068622 3.56518556,-2.99488298 3.7572787,-3 L3.80531016,-2.99984009 C3.98136559,-2.99397684 4.15577353,-2.93006742 4.29591397,-2.80811183 Z" id="path-1"></path>
    </defs>
    <g stroke="none" stroke-width="1" fill="none" fill-rule="evenodd">
        <g transform="translate(5.000000, 9.000000)">
            <mask id="mask-2" fill="white">
                <use xlink:href="#path-1"></use>
            </mask>
            <use fill="#FFFFFF" fill-rule="nonzero" transform="translate(6.500000, 3.500000) scale(-1, 1) rotate(-270.000000) translate(-6.500000, -3.500000) " xlink:href="#path-1" fill-opacity="0.6"></use>
        </g>
    </g>
</svg>